<?xml version="1.0" encoding="UTF-8"?>
<svg id="Capa_2" data-name="Capa 2" xmlns="http://www.w3.org/2000/svg" viewBox="0 0 815.87 486.4">
  <defs>
    <style>
      .cls-1 {
        fill: #fec201;
      }

      .cls-2 {
        fill: #025297;
      }
    </style>
  </defs>
  <g id="Capa_1-2" data-name="Capa 1">
    <g>
      <path class="cls-1" d="m455.29,288.99c-17.66,0-35.32.06-52.98-.02-8.87-.04-13.77-3.53-16.8-12.08-4.89-13.8-9.16-27.84-14.42-41.5-9.82-25.52-19.97-50.9-31.59-75.7-12.51-26.71-27.14-52.14-43.6-76.53-12.1-17.93-26.14-34.23-41.79-49.27-11.93-11.47-25.04-21.03-39.42-29.02-1.42-.79-3.53-1.68-3.12-3.46.47-2.01,2.8-1.28,4.35-1.3,9.24-.11,18.02,2.39,26.62,5.32,33.23,11.29,63.83,27.76,92.65,47.63,21.42,14.77,41.93,30.61,60.79,48.7,16.85,16.16,32.87,33.04,47.01,51.49,20.87,27.22,40.58,55.34,56.02,86.14,6.54,13.04,12.72,26.27,18.83,39.53,2.82,6.12.18,10.1-6.59,10.14-18.66.11-37.32.04-55.98.04,0-.03,0-.07,0-.1Z"/>
      <path class="cls-1" d="m9.78,194.32c20.18,2.09,40.35,4.05,60.61,5.25,27.58,1.64,55.17,2.97,82.81,2.89,33.8-.1,67.61-.01,101.41-.51,16.62-.25,33.24-1.47,49.84-2.54,24.63-1.59,41.38,9.18,51.3,34.23,4.34,10.96,7.84,22.28,11.08,33.62,3.76,13.15-3.72,21.7-17.46,21.19-42.08-1.57-84-4.94-125.67-11.07-18.36-2.7-36.97-4.49-54.98-8.76-34.68-8.22-69.3-16.67-102.42-30.62-16.37-6.89-31.97-14.8-46.8-24.3-6.34-4.06-11.65-9.73-17.36-14.75-1.06-.93-2.71-2.11-1.96-3.68.73-1.52,2.68-.8,4.1-.91,1.82-.14,3.66-.03,5.49-.03Z"/>
      <path class="cls-1" d="m606.94,289.1c-4.67,0-9.43-.6-13.98.13-9.13,1.46-14.6-3.55-18.83-10.2-9.43-14.81-20.02-28.72-31.16-42.24-9.72-11.8-19.23-23.79-29.5-35.1-20.6-22.7-41.8-44.79-64.44-65.57-20.42-18.75-41.37-36.79-63.41-53.55-10.78-8.19-22.18-15.55-33.16-23.48-30.01-21.7-62.99-37.93-96.71-52.83-.46-.2-.96-.35-1.35-.65-1.25-.95-2.46-1.95-3.68-2.93,1.46-.14,2.92-.39,4.39-.39,18.67-.08,35.97,6.18,53.29,11.95,29.87,9.94,58.24,23.28,85.56,38.95,28.46,16.32,55.91,34.09,82.12,53.87,16.91,12.76,33.13,26.32,48.81,40.47,30.08,27.14,58.58,55.87,84.06,87.49,8.73,10.84,17.97,21.27,26.88,31.97,3.71,4.45,4.69,9.55,2.22,14.94-2.34,5.12-6.72,7.14-12.13,7.18-6.33.05-12.66.01-18.99,0Z"/>
      <path class="cls-1" d="m636.8,194.45c17.12.16,34.27-.89,51.32,1.76,28.16,4.39,52.82,15.21,72.52,36.68,7.85,8.55,17.9,14.8,29.38,18.16,17.57,5.15,28.38,22.8,25.35,40.64-1.31,7.7-7.04,12.27-11.58,17.64-1.92,2.27-4.08.09-5.27-1.72-9.01-13.6-21.18-19.47-37.83-18.47-18.25,1.09-36.62,0-54.93.34-22.3.42-40.17-7.57-54.41-25.07-16.99-20.88-34.9-41.01-52.34-61.53-1.9-2.24-3.24-4.95-4.85-7.44,2.73-1.71,5.76-.96,8.67-.97,11.32-.06,22.64-.02,33.97-.02Z"/>
      <path class="cls-2" d="m348.74,400.41c-26.08.04-44.86-17.73-44.28-45.85.54-26.31,23.22-51.15,54.01-49.53,27.85,1.46,42.91,18.16,43.17,42.78.32,30.49-22.87,52.92-52.9,52.59Zm-24.71-44.29c.15,14.72,8.22,25.62,20.11,27.46,25.26,3.91,39.95-17.43,37.91-37.7-1.88-18.66-15.34-27.02-32.9-23.89-15.25,2.71-25.29,16.42-25.11,34.14Z"/>
      <path class="cls-2" d="m489.8,363.64c1.24-17.66,4.35-35.05,6.7-52.53.4-2.94,1.66-4.27,4.83-4.38,13.41-.47,13.81-.52,12.68,12.18-1.3,14.73-3.42,29.38-5.14,44.07-.19,1.64-.24,3.33-.14,4.98.6,9.99,4.24,15.34,11.16,16.48,10.79,1.79,19.49-2.18,23.11-11.1,3.25-8.02,4.06-16.51,4.74-25.15.77-9.9,3.5-19.62,4.15-29.61.12-1.8.65-3.59.64-5.38-.03-4.35,2.11-6.44,6.34-6.49,2.49-.03,4.99.08,7.48.2,4.82.24,6.14,2.95,5.49,7.43-2.32,15.96-4.56,31.94-6.73,47.92-2.2,16.19-7.29,30.4-24.82,35.84-10.82,3.36-21.9,3.4-32.77.46-10.9-2.95-17.08-12.44-17.71-25.95-.14-2.99-.02-5.98-.02-8.98Z"/>
      <path class="cls-2" d="m134.73,398.04c-9.34.03-11.86-2.06-12.95-11.44-.69-5.93-3.12-8.88-9.68-8.39-7.29.54-14.65.15-21.98.07-3.83-.04-6.02,1.52-7.3,5.32-4.25,12.57-11.87,16.86-24.95,14.49-1.83-.33-3.59-.49-2.13-3.28,9.01-17.14,17.65-34.47,26.46-51.7,5.33-10.43,11.01-20.76,16.43-31.18,3.59-6.91,10.09-4.98,15.91-5,5.05-.02,7.97,2.54,9.13,7.42,5.13,21.45,10.31,42.88,15.49,64.32.81,3.35,1.65,6.7,2.59,10.02q2.64,9.33-7.02,9.36Zm-30-34.4c1.17,0,2.33-.02,3.5,0,8.51.14,8.54-.26,6.51-8.58-1.79-7.31-2.72-14.83-4.09-22.24-.22-1.2.65-3.04-1.04-3.45-1.81-.44-1.8,1.61-2.3,2.65-3.26,6.79-6.4,13.64-9.58,20.47q-5.22,11.2,7.01,11.15Z"/>
      <path class="cls-2" d="m713.09,398.08c-9.82-.03-12.35-2.15-13.38-11.88-.59-5.53-2.76-8.39-8.87-8.02-7.13.44-14.31.25-21.46.08-4.31-.1-7.33,1.2-8.93,5.48-.92,2.46-2.28,4.8-3.67,7.04-4.42,7.13-15.11,10.49-22.71,7.28-2.09-.89-.84-1.9-.25-3.04,11.9-22.92,23.78-45.85,35.66-68.78,1.75-3.38,3.49-6.78,5.2-10.18,4.7-9.31,11.99-12.32,21.61-8.35,6.22,2.57,6.09,9.2,7.43,14.39,4.85,18.92,9.15,37.99,13.69,57,.8,3.35,1.83,6.64,2.65,9.98,2.13,8.77,1.91,9.03-6.96,9Zm-30.81-34.5c12.67-.02,12.74-.03,10.03-12.03-1.67-7.36-4.1-14.57-3.82-22.27.02-.54-.37-1.54-.65-1.57-1.28-.14-1.4,1.04-1.79,1.91-3.54,7.83-7.09,15.66-10.67,23.48q-4.79,10.49,6.9,10.47Z"/>
      <path class="cls-2" d="m252.17,306.82c9.4.13,16.97.07,24.39,2.37,9.69,3,15.71,9.4,16.53,18.25,1.15,12.43-3.35,21.48-13,26.12q-9.38,4.52-4.57,13.81c4.48,8.69,8.75,17.49,13.49,26.03,2.04,3.69.18,4.26-2.61,4.65-12.24,1.68-18.76-2.71-22.78-14.22-2.72-7.79-6.35-15.26-9.6-22.86-.38-.88-.91-2.3-1.97-1.62-.92.6-1.71,2.07-1.79,3.21-.69,10.38-2.59,20.59-3.98,30.87-.48,3.55-1.99,4.45-5.02,4.63-13.69.84-14.5-.21-12.67-13.67,3.19-23.45,6.1-46.94,9.11-70.42.63-4.88,2.46-8.14,8.3-7.23,2.6.41,5.32.07,6.18.07Zm22.4,26.55c-.05-8.2-9.76-14.52-17.03-11.04-1.44.69-2.14,2.01-2.35,3.59-.69,5.19-1.47,10.38-2.06,15.58-.2,1.75-.47,3.7,1.7,4.75,7.95,3.8,19.79-3.91,19.73-12.87Z"/>
      <path class="cls-2" d="m441.09,306.86c5.61.67,11.21.42,16.83,1.5,10.87,2.1,18.01,8.63,19.27,18.49,1.64,12.77-3.28,22.67-13.52,27.18-8.11,3.57-8.46,4.81-4.37,12.5,4.74,8.93,9.19,18.01,13.94,26.93,1.76,3.31.9,4.34-2.63,4.62-14.39,1.16-16.08.16-21.79-13.08-3.22-7.46-6.61-14.84-9.92-22.26-.53-1.18-.76-2.85-2.47-2.67-2.01.21-1.2,2.03-1.35,3.2-1.34,10.11-2.65,20.22-3.94,30.33-.38,3.03-2.35,4.26-5.07,4.42-2.49.14-5-.15-7.48-.03-4.42.2-6.49-1.69-6.12-6.2,1.38-16.71,4.02-33.24,6.44-49.81,1.31-8.97,2.81-17.95,3.45-26.97.45-6.36,2.77-9.08,9.26-8.2,3.1.42,6.31.07,9.47.07Zm4.25,14.97c-3.69-.44-6.39.9-5.85,6.32.22,2.17-.74,4.47-1.26,6.7-2.75,11.9-1.87,12.87,9.87,10.75,6.81-1.23,11.7-6.89,11.19-12.95-.56-6.68-5.5-10.79-13.96-10.82Z"/>
      <path class="cls-2" d="m193.24,306.86c7.33,0,14.65.06,21.98-.02,3.88-.04,5.43,1.34,4.45,5.42-2.54,10.59-2.46,10.62-13.55,10.64-5.33.01-10.68.28-15.98-.1-4.81-.35-7.59,1.09-8.33,6.12-2.08,14.16-1.1,15.02,10.54,14.63,5.16-.17,10.32-.08,15.48,0,3.1.05,7.76-1.35,7.17,3.99-.51,4.58.63,11.22-7.18,11.4-7.82.17-15.66.25-23.47-.03-4.79-.18-7.19,1.46-7.26,6.39-.02,1.77-.73,3.52-.91,5.3-1.21,12.11-.44,12.76,12.07,11.89,6.13-.43,12.3-.38,18.44-.55,1.25-.04,2.32.28,2.99,1.41,2.9,4.88-2.4,14.39-8.36,14.54-8.98.23-17.98.07-26.97.08-5.16,0-10.32-.05-15.48.07-3.25.08-4.66-1.31-4.22-4.52,2.61-19.04,5.27-38.08,7.82-57.13,1.13-8.47,2.2-16.95,2.98-25.46.34-3.69,2.35-4.19,5.34-4.16,7.49.08,14.98.03,22.47.03v.07Z"/>
      <path class="cls-1" d="m684.28,476.57c4.66,0,9.32-.02,13.98,0,2.23.01,4.68.31,5.46,2.65,1.61,4.77,3.07,1.92,4.32.02,13.77-20.87,27.51-41.76,41.2-62.69,2.57-3.93,6.29-4.41,10.4-4.06,4.01.34,4.17,3.62,4.92,6.51,5.34,20.75,10.71,41.49,16.1,62.23.5,1.93.88,3.77-1.58,4.43-3.3.89-6.83,1.56-8.76-2.27-1.33-2.64-2.18-5.57-2.98-8.44-1.31-4.7-4.39-6.83-9.13-6.88-7.32-.08-14.65-.19-21.97-.21-9.36-.03-14.45,6.13-18.09,13.49-1.79,3.61-4.02,4.92-7.66,4.92-17.31.02-34.62,0-51.93.13-7.02.06-5.78-4.77-5.03-8.67,2.86-14.81,6.05-29.55,9.11-44.33,1.15-5.53,2.49-11.03,3.35-16.61.73-4.79,4.09-4.85,7.39-4.34,3.56.54,3.97,3.13,3.28,6.44-3.6,17.2-6.97,34.46-10.53,51.67-1.02,4.94,1.27,6.2,5.67,5.99,4.15-.2,8.32-.04,12.48-.04v.07Zm63.57-17.68c0,.06,0,.13,0,.19,3.16,0,6.34-.15,9.49.03,5.18.3,6.46-2.05,5.19-6.75-1.88-6.96-3.57-13.97-5.33-20.96-.41-1.62-.66-3.65-2.4-4.1-1.95-.5-2.83,1.57-3.67,2.87-5.48,8.5-10.8,17.09-16.22,25.62-1.61,2.53-.48,3.13,1.95,3.1,3.66-.05,7.32-.01,10.99-.01Z"/>
      <path class="cls-2" d="m766.48,305c7.88.06,14.32,2.18,19.85,7.02,3.3,2.88,3.72,5.67.56,8.86-.93.94-1.88,1.94-2.53,3.08-2.14,3.73-3.74,4.62-7.19.66-6.01-6.9-16.67-6.34-21.2.43-3.75,5.6-1.83,10.91,5.03,15.22,5.87,3.69,11.87,7.34,17.12,11.82,9.43,8.06,9.9,18.79,6.67,29.75-3.52,11.99-13.29,16.3-24.52,18.22-11.73,2.01-21.51-1.86-29.85-10.07-2.59-2.55-2.12-4.45.03-7.22,4.34-5.61,7.43-10.21,14.27-1.75,4.46,5.52,12.15,4.98,18.41,1.56,5.78-3.15,5.15-8.94,4.35-14.42-.58-3.98-4.13-5.35-6.83-7.43-4.79-3.69-10.66-5.5-15.27-9.74-8.35-7.69-10.8-16.54-7.38-27.13,3.48-10.77,11.47-16.25,22.16-18.31,2.27-.44,4.64-.41,6.33-.54Z"/>
      <path class="cls-2" d="m615,306.79c8.99,0,17.99.12,26.98-.05,4.46-.08,5.47,1.86,4.72,5.89-1.87,9.99-2.03,10.32-12.43,10.12-13.46-.26-11.43,1.89-13.13,12.24-2.34,14.24-4.04,28.58-5.89,42.89-.6,4.59-.93,9.23-1.17,13.86-.22,4.19-1.94,6.55-6.41,6.31-1.33-.07-2.69-.14-3.99.06-7.31,1.12-9.07-2.67-8.22-9.01,2.67-19.94,5.28-39.9,7.97-59.84.57-4.21-.4-6.76-5.35-6.51-3.65.18-7.32-.06-10.98-.22-4.14-.18-7.47-1.48-6.46-6.54.84-4.23.14-9.64,7.39-9.33,8.98.38,17.98.09,26.98.11Z"/>
      <path class="cls-1" d="m333.78,485.99c-4.67.28-6.45-.69-7.92-3.26-8.47-14.88-17.13-29.65-25.83-44.4-1.03-1.75-1.6-4.8-4.13-4.4-2.46.39-2.18,3.33-2.58,5.39-2.7,13.84-5.44,27.67-8.08,41.52-.88,4.62-3.84,5.97-8.01,5.29-4.86-.79-3.07-4.6-2.58-7.12,4.08-21.05,8.41-42.05,12.6-63.08.4-2.02,1.1-3.34,3.35-3.65,3.47-.49,6.37.5,8.19,3.43,3.34,5.36,6.4,10.9,9.59,16.35,5.78,9.88,11.55,19.78,17.37,29.63.73,1.23,1.22,3.21,2.98,2.99,2.06-.27,1.93-2.53,2.24-4.01,2.87-13.9,5.59-27.84,8.43-41.75.61-2.98,1.62-5.81,4.92-7,2.09-.75,3.97-.22,5.73.83,1.69,1,1.02,2.61.74,4.05-3.76,19.04-7.51,38.08-11.31,57.12-.62,3.09-1.48,6.13-2.16,9.21-.7,3.14-3.22,2.82-3.54,2.86Z"/>
      <path class="cls-1" d="m229.47,486.27c-6.99,0-13.99-.05-20.98.02-4.23.04-5.7-1.92-4.87-5.97,4.25-20.83,8.52-41.66,12.66-62.51.83-4.17,2.94-5.78,7.2-5.73,13.32.17,26.64,0,39.96.11,2.16.02,5.6-1.28,5.64,2.82.04,3.76-1.08,7.06-5.8,7.08-9.82.04-19.65.03-29.47.04-7.92.01-10.25,3.45-10.27,15.51-.01,7.18,5.59,5.71,9.75,5.86,6.48.25,12.99,0,19.48.07,2.79.03,5.65.48,5.37,4.26-.24,3.25-1.52,5.59-5.53,5.51-8.49-.16-16.99.18-25.47-.13-5.73-.21-8.07,2.64-9.03,7.73-2.71,14.49-1.96,15.46,12.78,15.58,7.16.06,14.32.01,21.48.02,2.56,0,5.08-.15,5.12,3.67.04,3.62-1.29,5.84-5.04,6-3.82.16-7.66.09-11.49.11-3.83.01-7.66,0-11.49,0v-.06Z"/>
      <path class="cls-1" d="m385.4,486.27c-6.82,0-13.66-.28-20.47.09-5.26.29-6.31-1.91-5.34-6.49,3.46-16.41,6.9-32.82,10.17-49.27,4.28-21.47,1.28-17.94,22.58-18.23,8.99-.12,17.98-.07,26.96,0,2.46.02,5.98-1.05,5.79,3.27-.16,3.53-2.03,5.88-6.03,5.86-8.16-.03-16.32.24-24.47,0-15.98-.47-12.16,2.52-15.11,13.44-1.61,5.95.17,9.42,7.49,8.78,7.27-.63,14.64-.06,21.96-.23,3.25-.07,5.31.99,5.12,4.4-.17,3.04-1.38,5.44-5.13,5.42-9.32-.04-18.64.13-27.96,0-3.92-.06-5.79,1.61-6.37,5.38-.55,3.6-1.55,7.14-2.11,10.74-.83,5.4,1.21,8.09,7.09,7.87,9.48-.36,18.97-.32,28.46-.36,2.55,0,5.57-.57,5.4,3.78-.15,3.78-1.96,5.48-5.57,5.49-7.49.03-14.98,0-22.47,0v.05Z"/>
      <path class="cls-1" d="m453.97,486.26c-7.99,0-15.98.05-23.96-.03-2.23-.02-5.05.66-6.24-1.96-1.26-2.78.31-5.44,2.09-7.3,6.99-7.34,14.21-14.46,21.38-21.62,9.76-9.75,19.57-19.45,29.3-29.23.88-.89,2.06-2.35,1.85-3.27-.42-1.86-2.46-1.2-3.83-1.22-10.82-.12-21.63-.13-32.45-.22-2.29-.02-4.79.29-4.81-3.36-.02-3.42,1.19-5.51,4.8-5.53,17.14-.07,34.28-.11,51.42-.1,1.46,0,3.16.11,3.49,2.09.41,2.43-.14,4.68-1.88,6.44-10.86,10.92-21.79,21.79-32.66,32.71-5.97,6-11.92,12.03-17.79,18.13-.85.88-1.86,2.15-1.11,3.58.75,1.44,2.32,1.1,3.59,1.1,10.98.09,21.97.11,32.95.15,2.71,0,5.52-.32,5.29,3.89-.2,3.59-1.71,5.66-5.45,5.67-8.65.02-17.31,0-25.96,0v.08Z"/>
      <path class="cls-1" d="m608.65,486.14c-7.16,0-14.33-.04-21.49.02-4.02.03-5.37-1.88-4.61-5.69,4.23-20.97,8.38-41.95,12.69-62.9.69-3.35,2.69-5.34,6.64-5.29,13.49.17,26.99.18,40.48.02,3.46-.04,5.06,1.63,5.18,4.56.14,3.28-2.07,4.61-5.23,4.61-10-.01-20,.22-29.99-.04-5.74-.15-8.23,2.58-8.8,7.84-.11.99-.07,2-.2,2.99q-1.58,11.83,10.72,11.74c5.83-.04,11.66-.11,17.49.03,2.22.05,5.57-1.13,5.44,3.05-.11,3.63-1.15,6.44-5.81,6.34-8.49-.2-17,.17-25.49-.15-5.89-.22-8.08,2.56-8.38,7.97-.16,2.81-.4,5.74-1.35,8.34-2.28,6.29.56,7.61,6.14,7.48,9.66-.22,19.32-.11,28.99-.1,2.42,0,5.43-.64,5.28,3.35-.12,3.31-1.34,5.88-5.22,5.9-7.5.03-14.99,0-22.49,0v-.07Z"/>
      <path class="cls-1" d="m530.93,486.24c-10.62.68-20.18-1.68-25.34-12.8-2.24-4.82-2.8-10.07-1.95-15.15,2.28-13.59,5.06-27.1,7.6-40.65.78-4.17,2.99-6.08,7.37-5.17,4.67.97,3.7,4.01,3.1,7.3-2.41,13.4-6.49,26.51-7.31,40.19-.41,6.84,1.32,12.92,8.25,15.54,7.57,2.87,15.14,3.17,22.21-2.22,7.9-6.02,10.65-14.44,12.33-23.63,1.94-10.6,4.17-21.14,6.24-31.71.85-4.35,3.17-6.35,7.78-5.44,5.13,1.02,3.22,4.26,2.59,7.27-2.83,13.5-5.32,27.08-8.45,40.5-3.36,14.41-14.82,27.34-34.43,25.96Z"/>
      <path class="cls-1" d="m155.45,486.34c-8.25-.14-7.83-7.5-8.64-12.2-3.25-18.68-8.62-36.85-12.46-55.37-.53-2.57-2.55-5.81,2.28-6.44,3.88-.51,6.47-.13,8.02,4.84,5.06,16.28,7.58,33.18,12.5,49.47,1,3.29,1.82,3.62,3.69.76,4.9-7.48,9.79-14.96,14.69-22.45,6.13-9.37,12.87-18.35,18.09-28.32.79-1.51,2.49-2.75,4.05-3.59,2.76-1.49,6.48-1.99,8.51-.05,2.13,2.03-.98,4.26-2.25,6.26-13.04,20.55-26.11,41.09-39.01,61.73-2.29,3.66-5.17,5.48-9.47,5.36Z"/>
      <path class="cls-1" d="m58.94,451.39c-14.79-.03-14.88-.05-12.68-13.17,1.17-6.99,2.62-13.93,4.13-20.85.59-2.68,1.93-5.09,5.24-5.09,5.49,0,11-.14,16.46.29,6.89.54,11.41,4.53,13,11.2,2.04,8.57.12,16.08-6.86,22.01-6.02,5.12-13.12,6-19.28,5.62Zm6.15-34.02c-2.97.47-8.24-1.25-9.06,3.15-1.36,7.26-4.15,14.35-3.65,21.93.14,2.12.97,3.46,3.28,3.51,4.31.1,8.61.45,12.85-.82,7.07-2.12,12.02-9.84,11-17.28-1.03-7.48-5.1-10.55-14.41-10.49Z"/>
      <path class="cls-1" d="m111.69,412.21c2.83,0,5.67-.14,8.49.05,1.78.12,4.62-.86,4.66,2.22.03,3.14-2.84,2.75-4.89,2.83-3.99.16-8,.24-11.99.08-4.81-.19-6.33,2.18-6.52,6.69-.2,4.89,2.7,4.9,6.11,4.84,2.66-.05,5.33.06,7.99.19,1.55.08,3.21.46,3.18,2.41-.02,1.76-1.5,2.63-3.06,2.7-3.99.18-7.99.21-11.99.2-5.28-.02-5.57,3.84-5.84,7.55-.31,4.34,2.95,4.08,5.81,4.14,3.83.08,7.66.06,11.49.14,1.61.04,3.11.55,3.1,2.48-.02,1.89-1.45,2.51-3.09,2.51-6.33-.02-12.66.07-18.97-.21-3.8-.17-5.81-2.52-5.04-6.41,1.95-9.77,4.06-19.51,6.1-29.26.51-2.44,2.26-3.09,4.46-3.09,3.33,0,6.66,0,9.99,0,0-.02,0-.04,0-.07Z"/>
    </g>
  </g>
</svg>